<svg xmlns="http://www.w3.org/2000/svg" xml:space="preserve" width="702.308" height="140.086" style="shape-rendering:geometricPrecision;text-rendering:geometricPrecision;image-rendering:optimizeQuality;fill-rule:evenodd;clip-rule:evenodd" viewBox="0 0 12341 2462"><defs><style>.fil0,.fil1{fill:#fefefe}.fil0{fill-rule:nonzero}</style><mask id="id0"><linearGradient id="id1" x1="1953.32" x2="1134.49" y1="1805.68" y2="1383.04" gradientUnits="userSpaceOnUse"><stop offset="0" style="stop-opacity:1;stop-color:white"/><stop offset="1" style="stop-opacity:0;stop-color:white"/></linearGradient><path d="M774 903h1540v1383H774z" style="fill:url(#id1)"/></mask></defs><g id="Layer_x0020_1"><g id="_893194784"><path d="m5544 137-32 62-5-3v-3c0-4-3-9-11-14-23-16-49-24-80-24-13 0-25 2-36 5-7 3-13 7-18 12s-7 11-7 17c0 10 6 16 18 20 6 2 19 4 39 6l30 3c18 2 33 4 44 8 11 3 21 8 29 14 9 6 16 15 21 25s7 21 7 33c0 19-6 35-18 50-10 13-27 23-50 29-16 5-35 7-54 7-34 0-68-8-102-25-7-3-12-5-13-5-2 0-4 1-8 4l-5-3 28-65 5 3v3c0 5 3 11 9 16 8 7 21 14 38 19s34 8 50 8c17 0 31-3 43-9 7-3 12-7 16-12 4-6 6-11 6-17 0-9-5-15-14-19-7-3-20-5-40-7l-29-3c-20-2-34-4-42-6s-16-5-25-9c-11-6-20-15-27-26-6-11-9-23-9-36 0-23 8-41 23-56 20-19 50-29 90-29 16 0 32 2 46 5 15 4 33 10 54 19 8 3 12 5 14 5 3 0 6-2 9-5l6 3zm-363 22v200c0 4 1 7 3 9 1 2 5 4 9 5v7h-81v-7c4-1 7-3 9-5s3-5 3-9V159h-81c-4 0-7 0-9 2s-4 5-5 10h-6v-69h6c1 5 3 8 5 10s5 3 9 3h219c4 0 7-1 9-3s4-5 5-10h6v69h-6c-1-5-3-8-5-10s-5-2-9-2h-81zm-174-22-31 62-6-3c1-1 1-2 1-3 0-4-4-9-11-14-23-16-50-24-81-24-13 0-25 2-35 5-8 3-14 7-19 12-4 5-7 11-7 17 0 10 6 16 18 20 6 2 19 4 40 6l30 3c18 2 32 4 43 8 11 3 21 8 29 14 9 6 16 15 21 25s8 21 8 33c0 19-6 35-18 50-11 13-28 23-50 29-17 5-35 7-54 7-35 0-69-8-103-25-7-3-11-5-13-5-1 0-4 1-7 4l-6-3 28-65 6 3v3c0 5 3 11 8 16 8 7 21 14 39 19 17 5 33 8 49 8 17 0 31-3 43-9 7-3 12-7 16-12 4-6 6-11 6-17 0-9-4-15-14-19-6-3-19-5-39-7l-30-3c-19-2-33-4-42-6-8-2-16-5-24-9-12-6-21-15-27-26s-9-23-9-36c0-23 7-41 22-56 20-19 50-29 90-29 17 0 32 2 47 5 14 4 32 10 54 19 7 3 12 5 13 5 3 0 6-2 10-5l5 3zm-287-2v149c0 28-6 49-16 63-18 25-56 37-114 37-41 0-73-7-95-20-13-8-22-19-27-32-5-14-7-30-7-48V135c0-4-1-7-3-9s-5-4-10-5v-6h82v6c-4 1-8 3-9 5-2 2-3 5-3 9v132c0 16 1 27 2 34 2 7 5 13 10 18 12 14 33 20 62 20 30 0 51-6 63-20 5-5 8-11 10-18 1-7 2-18 2-34V135c0-4-1-7-3-9-1-2-5-4-9-5v-6h77v6c-5 1-8 3-10 5-1 2-2 5-2 9zm-501 93h88c13 0 22 0 28-1 5-1 10-3 14-5 10-5 15-15 15-29s-5-23-15-28c-4-3-9-5-14-5-5-1-15-1-28-1h-88v69zm0 44v87c0 4 1 7 3 9 2 3 5 4 9 5v7h-81v-7c4-1 8-3 9-5 2-2 3-5 3-9V135c0-4-1-7-3-9-1-2-5-4-9-5v-6h163c20 0 36 1 48 3 11 3 22 7 30 13 10 6 18 16 23 27s7 23 7 36c0 43-24 68-71 75l51 73c9 13 15 22 19 25 4 4 9 6 15 6v7h-94v-7c6-1 10-3 10-7 0-2-3-8-9-16l-53-78h-70zm-187-113v200c0 4 1 7 3 9s5 4 10 5v7h-82v-7c5-1 8-3 10-5 1-2 2-5 2-9V159h-81c-4 0-7 0-9 2s-3 5-5 10h-6v-69h6c2 5 3 8 5 10s5 3 9 3h219c4 0 7-1 9-3s4-5 5-10h7v69h-7c-1-5-3-8-5-10s-5-2-9-2h-81zm-379 117-42-94-43 94h85zm17 36h-119l-18 37c-2 5-3 10-3 12 0 6 4 10 12 12v7h-86v-7c5-1 9-3 12-5 2-3 5-8 9-15l96-204c3-6 4-11 4-15 0-6-3-10-11-13v-6h93v6c-7 2-11 6-11 12 0 3 1 8 3 12l100 204c4 9 8 15 11 18s8 5 13 6v7h-96v-7c8-1 12-5 12-12 0-2-1-6-3-12l-18-37zm-280-153v200c0 4 1 7 3 9s5 4 9 5v7h-81v-7c4-1 7-3 9-5s3-5 3-9V159h-81c-4 0-7 0-9 2s-4 5-5 10h-6v-69h6c1 5 3 8 5 10s5 3 9 3h219c4 0 7-1 9-3s4-5 5-10h6v69h-6c-1-5-3-8-5-10s-5-2-9-2h-81zm-243 117-42-94-43 94h85zm16 36h-118l-18 37c-2 5-4 10-4 12 0 6 5 10 13 12v7h-86v-7c5-1 9-3 11-5 3-3 6-8 10-15l96-204c3-6 4-11 4-15 0-6-3-10-11-13v-6h93v6c-8 2-11 6-11 12 0 3 1 8 3 12l100 204c4 9 8 15 11 18s7 5 13 6v7h-96v-7c8-1 12-5 12-12 0-2-1-6-4-12l-18-37zm-279-153v200c0 4 1 7 2 9 2 2 6 4 10 5v7h-82v-7c5-1 8-3 10-5s3-5 3-9V159h-81c-4 0-7 0-9 2s-4 5-5 10h-6v-69h6c1 5 3 8 5 10s5 3 9 3h219c4 0 7-1 9-3s3-5 5-10h6v69h-6c-2-5-3-8-5-10s-5-2-9-2h-81zM2973 1201c-62 0-115-16-158-47-43-30-73-68-89-113l119-37c10 26 27 47 51 63 23 16 52 25 85 25 24 0 44-5 59-15 16-10 23-22 23-35 0-22-19-39-56-51l-136-42c-37-12-66-30-88-54s-33-53-33-86c0-44 18-81 55-111 38-31 84-46 141-46 55 0 104 13 147 40s71 59 86 98l-115 34c-11-19-27-34-48-46s-44-17-69-17c-21 0-38 4-51 12s-19 18-19 31c0 18 12 30 35 37l133 42c46 15 81 33 107 54 24 22 37 53 37 94 0 48-20 88-60 120s-92 48-157 48l1 2zM3816 661v527h-125V879l-155 212-155-212v309h-125V661h119l161 234 161-234zM4209 978l-71-198-72 198h143zm40 109h-223l-37 101h-129l195-527h165l195 527h-129l-37-101zM4833 1074v114h-373V661h125v413zM5265 1074v114h-373V661h125v413zM5809 978l-71-198-72 198h143zm40 109h-223l-37 101h-129l195-527h165l194 527h-128l-37-101zM6523 661v527h-101l-238-302v302h-125V661h102l237 302V661zM6613 661h127v527h-127zM7390 661v527h-125V879l-156 212-154-212v309h-125V661h119l161 234 160-234zM7783 978l-71-198-72 198h143zm40 109h-223l-37 101h-129l195-527h165l194 527h-128l-37-101zM8406 1074v114h-373V661h125v413zM9085 660v528h-125V976h-208v212h-125V660h125v203h208V660zM9544 1038c28-30 42-68 42-113 0-46-14-84-42-114s-65-45-111-45c-45 0-82 15-110 45s-42 68-42 114c0 45 14 83 42 113s65 45 110 45c46 0 83-15 111-45zm-111 161c-80 0-146-26-199-78-53-53-80-118-80-196 0-79 27-144 80-196 53-53 119-79 199-79 81 0 147 26 200 79 53 52 80 117 80 195 0 79-27 144-80 196s-119 78-200 78v1zM9989 1200c-62 0-115-15-158-46s-72-69-89-114l119-36c11 26 28 47 51 63 24 16 52 24 85 24 25 0 45-5 60-15 15-9 23-21 23-35 0-22-19-38-57-51l-136-42c-36-11-66-29-88-53-22-25-33-53-32-86-1-44 18-81 55-112 37-30 84-46 140-46s105 14 147 40c43 27 72 60 86 99l-115 33c-11-18-26-33-47-45s-45-18-70-18c-21 0-38 4-51 12s-19 19-19 31c0 18 12 31 36 38l132 42c46 14 82 32 107 54s37 53 37 94c0 48-19 87-59 119-41 32-93 48-157 48v2zM10518 928c22 0 40-7 54-23 15-15 22-33 22-54s-7-39-21-54c-13-15-30-23-50-23h-128v155h122l1-1zm8-267c56 0 101 19 136 58 35 38 53 82 53 131 0 50-18 94-53 132-35 39-82 58-141 58h-125v148h-123V660h253v1zM10771 660h127v528h-127zM11415 773h-168v415h-125V773h-168V660h461zM11718 978l-72-198-71 198h143zm40 109h-223l-37 101h-129l195-528h164l195 528h-128l-37-101zM12341 1073v115h-373V660h125v413zM3139 1397v390h-92v-228l-115 156-114-156v228h-92v-390h87l120 173 118-173zM3546 1397v228c0 51-15 92-46 123-30 31-73 47-127 47-55 0-98-16-128-47s-45-72-45-123v-228h93v226c0 26 7 47 21 63 13 16 33 24 59 24s46-8 60-24c13-16 20-37 20-63v-226h93zM4022 1397v390h-93v-228l-114 156-114-156v228h-93v-390h88l119 173 119-173zM4319 1696c7-7 12-17 12-29s-4-22-12-29-19-11-33-11h-110v81h110c14 0 25-4 33-12zm-143-219v78h100c12 0 22-4 30-12s12-17 12-28c0-12-4-21-12-28s-18-11-30-11l-100 1zm186 106c40 20 60 51 60 92 0 35-12 63-36 82-24 20-58 29-100 29h-200v-389h190c40 0 72 10 96 29 25 20 37 45 37 77 0 36-16 62-47 80zM4689 1632l-53-146-53 146h106zm30 80h-165l-27 75h-95l143-390h122l144 390h-95l-27-75zM4872 1397h94v390h-94zM2866 2359c-40 0-73-13-100-41-27-27-40-61-40-101s13-73 40-100 60-41 100-41c30 0 56 8 79 22 22 15 38 34 48 58l-19 4c-8-20-22-35-41-47s-41-19-67-19c-35 0-64 12-87 36-22 24-34 53-34 86 0 35 12 64 34 89 23 24 52 36 87 36 26 0 48-6 67-18s33-28 41-48l18 5c-9 24-25 43-48 57-22 15-48 22-77 22h-1zM3334 2255l-64-152-64 152h128zm8 19h-143l-34 80h-22l116-273h23l116 273h-22l-34-80zM3587 2223h103c20 0 35-6 47-18s17-27 17-44-6-31-17-43c-12-13-27-19-47-19h-103v124zm91 18h-91v113h-20v-273h123c26 0 46 8 61 24 15 17 23 35 23 56 0 20-7 38-20 53-13 16-31 24-53 27l76 113h-23l-76-113zM3981 2099v108h148v17h-148v112h168v18h-188v-273h188v18zM4350 2357c-5 0-9-2-12-5-4-3-5-7-5-11 0-5 1-9 5-12 3-3 7-5 12-5 4 0 9 2 12 5s4 7 4 11c0 5-1 9-4 12s-8 5-12 5zM4917 2359c-40 0-74-13-101-41-27-27-40-61-40-101s13-73 40-100 61-41 101-41c29 0 55 8 78 22 23 15 39 34 48 58l-19 4c-8-20-21-35-40-47-20-12-42-19-67-19-36 0-65 12-87 36-23 24-34 53-34 86 0 35 11 64 34 89 22 24 51 36 87 36 25 0 48-6 67-18 18-12 32-28 40-48l19 5c-10 24-26 43-48 57-23 15-49 22-78 22zM5442 2081v166c0 34-10 62-29 82-20 20-46 30-81 30-34 0-60-10-80-30-19-20-29-48-29-82v-166h20v166c0 28 8 51 23 68 16 17 38 26 66 26 29 0 51-9 67-26 15-17 23-40 23-68v-166h20zM5653 2223h103c19 0 35-6 47-18 11-12 17-27 17-44s-6-31-17-43c-12-13-28-19-47-19h-103v124zm91 18h-91v113h-20v-273h123c26 0 46 8 61 24 15 17 22 35 22 56 0 20-6 38-19 53-13 16-31 24-53 27l76 113h-23l-76-113zM6047 2099v108h148v17h-148v112h168v18h-188v-273h188v18zM6415 2357c-5 0-9-2-12-5s-4-7-4-11c0-5 1-9 4-12s7-5 12-5 9 2 12 5 5 7 5 11c0 5-2 9-5 12s-7 5-12 5zM6983 2359c-41 0-74-13-101-41-27-27-40-61-40-101s13-73 40-100 60-41 101-41c29 0 55 8 78 22 23 15 39 34 48 58l-19 4c-8-20-22-35-41-47s-41-19-67-19c-35 0-64 12-87 36-22 24-33 53-33 86 0 35 11 64 33 89 23 24 52 36 88 36 25 0 47-6 66-18s33-28 41-48l19 5c-10 24-26 43-49 57-22 15-48 22-77 22zM7418 2341c35 0 64-12 87-36 22-24 33-54 33-88s-11-63-33-86c-22-24-51-36-86-36-36 0-64 11-87 35-22 24-34 53-34 86 0 35 12 65 34 89s51 36 87 36h-1zm1 18c-40 0-73-13-100-41-27-27-40-61-40-101s13-73 40-100 60-41 100-41c39 0 72 14 99 41s40 60 40 100-13 74-40 101c-27 28-60 41-99 41zM7994 2081v273h-20v-240l-107 153-107-153v240h-20v-273h19l108 153 108-153zM8209 2099v110h145v17h-145v128h-19v-273h184v18zM8668 2341c35 0 64-12 87-36 22-24 33-54 33-88s-11-63-33-86c-23-24-51-36-87-36-35 0-63 11-86 35-22 24-34 53-34 86 0 35 12 65 34 89s51 36 87 36h-1zm1 18c-40 0-73-13-100-41-27-27-40-61-40-101s13-73 40-100 60-41 100-41c39 0 72 14 99 41s40 60 40 100-13 74-40 101c-27 28-60 41-99 41zM9009 2223h104c19 0 35-6 46-18 12-12 18-27 18-44s-6-31-18-43c-11-13-27-19-47-19h-102l-1 124zm92 18h-91v113h-20v-273h123c25 0 46 8 61 24 15 17 22 35 22 56 0 20-6 38-19 53-13 16-31 24-54 27l77 113h-23l-76-113zM9590 2099h-106v255h-20v-255h-106v-18h232zM9714 2357c-5 0-9-2-12-5s-5-7-5-11c0-5 2-9 5-12s7-5 12-5 9 2 12 5 4 7 4 11c0 5-1 9-4 12s-7 5-12 5z" class="fil0"/><path d="M1214 924c-130 34-238 101-332 204l-2 2-1 2-2 2-2 2-2 2-1 2h-1l-1 3-2 1v1l-2 2-1 1-1 1-1 2-2 1v1l-2 2-1 2h-1l-2 2-1 2v1l-2 2-1 1-1 1-2 2v1l-1 1-2 2-1 2-1 1-1 2-1 1-1 1-2 2-1 1-1 2-1 2-1 1-1 1-2 2v1l-1 2-2 2-1 1-1 1-2 2v1l-1 2-2 2v1l-2 1-1 3h-1l-1 2-2 3-1 2-2 2v1l-2 2-1 2-2 3-1 2-2 2-2 3-1 2-2 3-2 2-1 2v1l-2 2-1 2-1 1-1 2-1 2-1 1-1 2-2 2v1l-2 3-1 1v1l-2 3-1 1v1l-2 3-1 1-1 1-1 3c-33 54-63 115-94 185-99 230-118 463-52 655 55 162 147 268 274 317 111 42 229 31 322 8 99-25 171-65 176-68l2-1c42-25 118-79 118-79 9-6 18-13 29-22 2-2 5-4 8-6h3c58 11 120 18 184 21h1c7 0 89 1 188-24 93-24 202-70 279-160 89-103 120-240 92-409-34-200-161-396-358-552-122-96-228-159-335-197-78-28-155-41-232-41-52 0-104 6-157 19h-3l-4 1s-1 0-1 1zm-332 204zm770 1050 10-11 5-4-15 15zm15-15c63-67 115-139 154-215 71-139 98-291 76-427-26-164-120-287-239-315-28-6-54-9-79-9-42 0-81 9-116 27-8-3-16-4-25-4h-1c-54 0-99 44-99 98-1 55 43 100 98 101 55 0 100-44 100-98v-1c28-8 59-8 95 0 72 17 132 105 151 219 23 145-19 337-176 517-27 29-55 58-82 81-1 0-67 63-127 96-1 1-247 167-454 90-93-34-161-118-205-245-75-221-1-453 50-571 30-70 62-131 96-185l3-6 1-1 5-7 1-2 3-6 10-13 5-7 1-2 3-5 3-3 2-3 4-6 1-1 5-6 1-2 4-5 3-3 2-3 4-6h1l5-6 1-2 4-4 3-4 2-2 4-5 1-1 5-5 1-2 4-4 3-4 2-2 5-5 5-5 2-2 4-3 3-4 2-2 5-5 6-5 2-1 3-4 5-4 6-5 5-5 3-1 3-3 4-4 2-1 5-4 6-4 2-2 3-2 6-5 6-4h1l5-4 2-1 3-2 1-1 5-3 6-4h1l5-3 6-4 5-3h1l6-4h1l5-3 4-2 2-1 6-3h1l6-3 1-1 5-2 4-2 8-4h1l6-3h2l5-2 3-2 3-1 6-2 3-1 6-2 5-2 4-1 2-1 7-2 7-3h2l4-2 5-1h2l7-2 3-1c200-49 393 12 627 197 101 80 276 248 315 480 22 132 0 237-65 312-122 142-361 144-376 144l-81-6zm-423-1126zM563 256c-29 0-58 5-85 16-57 21-104 65-120 127-30 116 13 249 79 344 47 67 110 125 186 151 56 19 119 20 173 0 21-8 41-20 58-34 26-22 45-49 59-80 17-41 24-88 20-133-8-78-44-151-90-215-58-79-135-150-231-170-16-4-32-6-49-6zm99 528c-59-20-103-70-129-107-56-81-80-178-62-249 8-28 34-41 49-47 21-8 45-10 67-5 69 15 126 76 161 125 41 56 64 109 68 157 3 26-1 53-11 76-6 15-15 27-26 36-7 6-15 11-24 14-14 5-29 8-45 8s-33-3-48-8zM124 803C54 830 2 894 0 976c-2 91 42 185 99 253 51 60 118 111 195 129 46 11 96 8 140-9 30-11 57-29 78-54 19-22 32-48 39-77 11-38 11-80 1-119-15-68-55-128-103-179-60-65-139-120-228-130-7 0-15-1-22-1-26 0-51 5-75 14zm196 441c-56-13-103-56-131-91-46-53-73-120-72-174 1-44 35-61 47-66 14-5 30-8 45-6 63 6 119 54 155 93 40 43 65 86 75 125 5 22 4 44-1 63-3 13-8 23-15 31-8 9-18 16-31 21s-28 7-43 7c-9 0-19-1-29-3zM1155 14c-42 16-80 45-107 82-57 79-69 183-59 280 8 79 29 157 76 221 27 36 62 67 103 86 30 14 63 22 97 21 23-1 45-6 66-14 54-20 101-63 129-114 40-71 49-156 39-236-14-116-70-243-169-310-31-21-65-30-100-30-25 0-51 5-75 14zm63 563c-22-11-43-28-59-49-28-39-46-94-53-163-6-60-5-143 37-201 13-18 33-32 54-41 15-5 43-12 68 4 60 40 106 129 118 226 6 46 6 112-25 166-16 28-42 52-69 62-9 4-19 5-28 6h-2c-13 0-27-4-41-10zM1772 176c-29 11-57 30-80 55-61 66-83 159-84 249-2 69 8 141 41 202 19 35 47 66 81 89 24 16 51 27 80 31 32 4 64-1 94-12 44-17 83-48 111-86 46-65 61-147 59-226-2-88-32-188-93-255-38-41-88-60-138-60-24 0-48 4-71 13zm54 510c-10-2-21-6-32-13-17-11-32-28-42-47-20-36-29-84-28-144 2-53 12-126 54-172 10-11 23-20 36-25 11-4 50-15 81 18 37 39 60 108 62 178 2 45-4 108-38 155-14 20-35 37-56 45-10 3-20 5-29 5h-8z" class="fil1"/><path d="M966 1381c-93 81-117 234-62 390 45 131 141 252 269 340 50 35 105 64 163 88 34-11 89-55 111-84-244-81-382-237-433-382-38-110-26-216 29-264 26-23 52-38 78-45l5-1c14 37 49 64 91 64 55 1 100-43 101-98 0-55-44-100-98-101-20 0-39 6-54 16l-14-1c-65 0-128 26-186 78z" class="fil1"/><path d="m1667 2163-108 102c59 11 120 18 185 21h1c7 0 89 1 188-24 93-24 202-70 279-160 89-103 120-240 92-409-34-200-161-396-358-552-122-96-228-159-335-197-78-28-155-41-232-41-52 0-104 6-157 19h-3l-4 1s-1 0-1 1c-130 34-238 101-332 204-39 43-74 92-108 148l110 46c98-156 213-247 360-285l3-1c200-49 393 12 627 197 101 80 276 248 315 480 22 132 0 237-65 312-122 142-361 144-376 144l-81-6z" class="fil1" style="mask:url(#id0)"/></g></g></svg>